%TF.GenerationSoftware,KiCad,Pcbnew,7.0.1*%
%TF.CreationDate,2024-02-11T20:07:16+03:00*%
%TF.ProjectId,jdy40_remote_button,6a647934-305f-4726-956d-6f74655f6275,rev?*%
%TF.SameCoordinates,Original*%
%TF.FileFunction,Copper,L2,Bot*%
%TF.FilePolarity,Positive*%
%FSLAX46Y46*%
G04 Gerber Fmt 4.6, Leading zero omitted, Abs format (unit mm)*
G04 Created by KiCad (PCBNEW 7.0.1) date 2024-02-11 20:07:16*
%MOMM*%
%LPD*%
G01*
G04 APERTURE LIST*
%TA.AperFunction,ComponentPad*%
%ADD10R,1.700000X1.700000*%
%TD*%
%TA.AperFunction,ComponentPad*%
%ADD11O,1.700000X1.700000*%
%TD*%
G04 APERTURE END LIST*
D10*
%TO.P,J4,1,Pin_1*%
%TO.N,Net-(J4-Pin_1)*%
X110760000Y-71120000D03*
D11*
%TO.P,J4,2,Pin_2*%
X110760000Y-68580000D03*
%TO.P,J4,3,Pin_3*%
X110760000Y-66040000D03*
%TO.P,J4,4,Pin_4*%
X110760000Y-63500000D03*
%TO.P,J4,5,Pin_5*%
X110760000Y-60960000D03*
%TD*%
D10*
%TO.P,J2,1,Pin_1*%
%TO.N,Earth*%
X72660000Y-58420000D03*
%TD*%
%TO.P,J1,1,Pin_1*%
%TO.N,+3.3V*%
X87900000Y-71120000D03*
%TD*%
%TO.P,J3,1,Pin_1*%
%TO.N,Earth*%
X108220000Y-58425000D03*
D11*
%TO.P,J3,2,Pin_2*%
%TO.N,Net-(DD1-GPIO1)*%
X108220000Y-60965000D03*
%TO.P,J3,3,Pin_3*%
%TO.N,Net-(DD1-GPIO2)*%
X108220000Y-63505000D03*
%TO.P,J3,4,Pin_4*%
%TO.N,Net-(DD1-GPIO3)*%
X108220000Y-66045000D03*
%TO.P,J3,5,Pin_5*%
%TO.N,Net-(DD1-GPIO4)*%
X108220000Y-68585000D03*
%TD*%
%TA.AperFunction,Conductor*%
%TO.N,Earth*%
G36*
X113437500Y-55017113D02*
G01*
X113482887Y-55062500D01*
X113499500Y-55124500D01*
X113499500Y-74875500D01*
X113482887Y-74937500D01*
X113437500Y-74982887D01*
X113375500Y-74999500D01*
X70624500Y-74999500D01*
X70562500Y-74982887D01*
X70517113Y-74937500D01*
X70500500Y-74875500D01*
X70500500Y-72017869D01*
X86549500Y-72017869D01*
X86555909Y-72077483D01*
X86606204Y-72212331D01*
X86692454Y-72327546D01*
X86807669Y-72413796D01*
X86942517Y-72464091D01*
X87002127Y-72470500D01*
X88797872Y-72470499D01*
X88857483Y-72464091D01*
X88992331Y-72413796D01*
X89107546Y-72327546D01*
X89193796Y-72212331D01*
X89244091Y-72077483D01*
X89250500Y-72017873D01*
X89250499Y-70222128D01*
X89244091Y-70162517D01*
X89193796Y-70027669D01*
X89107546Y-69912454D01*
X88992331Y-69826204D01*
X88857483Y-69775909D01*
X88797873Y-69769500D01*
X88797869Y-69769500D01*
X87002130Y-69769500D01*
X86942515Y-69775909D01*
X86807669Y-69826204D01*
X86692454Y-69912454D01*
X86606204Y-70027668D01*
X86555909Y-70162516D01*
X86549500Y-70222130D01*
X86549500Y-72017869D01*
X70500500Y-72017869D01*
X70500500Y-68584999D01*
X106864340Y-68584999D01*
X106884936Y-68820407D01*
X106929709Y-68987502D01*
X106946097Y-69048663D01*
X107045965Y-69262830D01*
X107181505Y-69456401D01*
X107348599Y-69623495D01*
X107542170Y-69759035D01*
X107756337Y-69858903D01*
X107984592Y-69920063D01*
X108220000Y-69940659D01*
X108455408Y-69920063D01*
X108683663Y-69858903D01*
X108897830Y-69759035D01*
X109091401Y-69623495D01*
X109258495Y-69456401D01*
X109390177Y-69268338D01*
X109434493Y-69229475D01*
X109491750Y-69215464D01*
X109549007Y-69229475D01*
X109593322Y-69268338D01*
X109721505Y-69451401D01*
X109721508Y-69451404D01*
X109843430Y-69573326D01*
X109874726Y-69626072D01*
X109876915Y-69687365D01*
X109849462Y-69742209D01*
X109799083Y-69777189D01*
X109667669Y-69826204D01*
X109552454Y-69912454D01*
X109466204Y-70027668D01*
X109415909Y-70162516D01*
X109409500Y-70222130D01*
X109409500Y-72017869D01*
X109415909Y-72077483D01*
X109466204Y-72212331D01*
X109552454Y-72327546D01*
X109667669Y-72413796D01*
X109802517Y-72464091D01*
X109862127Y-72470500D01*
X111657872Y-72470499D01*
X111717483Y-72464091D01*
X111852331Y-72413796D01*
X111967546Y-72327546D01*
X112053796Y-72212331D01*
X112104091Y-72077483D01*
X112110500Y-72017873D01*
X112110499Y-70222128D01*
X112104091Y-70162517D01*
X112053796Y-70027669D01*
X111967546Y-69912454D01*
X111852331Y-69826204D01*
X111790898Y-69803291D01*
X111720916Y-69777189D01*
X111670537Y-69742209D01*
X111643084Y-69687365D01*
X111645273Y-69626072D01*
X111676566Y-69573329D01*
X111798495Y-69451401D01*
X111934035Y-69257830D01*
X112033903Y-69043663D01*
X112095063Y-68815408D01*
X112115659Y-68580000D01*
X112095063Y-68344592D01*
X112033903Y-68116337D01*
X111934035Y-67902171D01*
X111798495Y-67708599D01*
X111631401Y-67541505D01*
X111445839Y-67411573D01*
X111406975Y-67367257D01*
X111392964Y-67310000D01*
X111406975Y-67252743D01*
X111445839Y-67208426D01*
X111631401Y-67078495D01*
X111798495Y-66911401D01*
X111934035Y-66717830D01*
X112033903Y-66503663D01*
X112095063Y-66275408D01*
X112115659Y-66040000D01*
X112095063Y-65804592D01*
X112033903Y-65576337D01*
X111934035Y-65362171D01*
X111798495Y-65168599D01*
X111631401Y-65001505D01*
X111445839Y-64871573D01*
X111406976Y-64827257D01*
X111392965Y-64770000D01*
X111406976Y-64712743D01*
X111445839Y-64668426D01*
X111631401Y-64538495D01*
X111798495Y-64371401D01*
X111934035Y-64177830D01*
X112033903Y-63963663D01*
X112095063Y-63735408D01*
X112115659Y-63500000D01*
X112095063Y-63264592D01*
X112033903Y-63036337D01*
X111934035Y-62822171D01*
X111798495Y-62628599D01*
X111631401Y-62461505D01*
X111445839Y-62331573D01*
X111406974Y-62287255D01*
X111392964Y-62229999D01*
X111406975Y-62172742D01*
X111445837Y-62128428D01*
X111631401Y-61998495D01*
X111798495Y-61831401D01*
X111934035Y-61637830D01*
X112033903Y-61423663D01*
X112095063Y-61195408D01*
X112115659Y-60960000D01*
X112095063Y-60724592D01*
X112033903Y-60496337D01*
X111934035Y-60282171D01*
X111798495Y-60088599D01*
X111631401Y-59921505D01*
X111437830Y-59785965D01*
X111223663Y-59686097D01*
X111162501Y-59669709D01*
X110995407Y-59624936D01*
X110760000Y-59604340D01*
X110524592Y-59624936D01*
X110296336Y-59686097D01*
X110082170Y-59785965D01*
X109888598Y-59921505D01*
X109721508Y-60088595D01*
X109589824Y-60276660D01*
X109545506Y-60315525D01*
X109488249Y-60329536D01*
X109430992Y-60315525D01*
X109386674Y-60276659D01*
X109258494Y-60093598D01*
X109091404Y-59926508D01*
X109091401Y-59926505D01*
X108897830Y-59790965D01*
X108683663Y-59691097D01*
X108622501Y-59674709D01*
X108455407Y-59629936D01*
X108220000Y-59609340D01*
X107984592Y-59629936D01*
X107756336Y-59691097D01*
X107542170Y-59790965D01*
X107348598Y-59926505D01*
X107181505Y-60093598D01*
X107045965Y-60287170D01*
X106946097Y-60501336D01*
X106884936Y-60729592D01*
X106864340Y-60965000D01*
X106884936Y-61200407D01*
X106929709Y-61367502D01*
X106946097Y-61428663D01*
X107045965Y-61642830D01*
X107181505Y-61836401D01*
X107348599Y-62003495D01*
X107534160Y-62133426D01*
X107573024Y-62177743D01*
X107587035Y-62235000D01*
X107573024Y-62292257D01*
X107534158Y-62336575D01*
X107355736Y-62461508D01*
X107348595Y-62466508D01*
X107181505Y-62633598D01*
X107045965Y-62827170D01*
X106946097Y-63041336D01*
X106884936Y-63269592D01*
X106864340Y-63505000D01*
X106884936Y-63740407D01*
X106929709Y-63907502D01*
X106946097Y-63968663D01*
X107045965Y-64182830D01*
X107181505Y-64376401D01*
X107348599Y-64543495D01*
X107534160Y-64673426D01*
X107573024Y-64717743D01*
X107587035Y-64775000D01*
X107573024Y-64832257D01*
X107534158Y-64876575D01*
X107355736Y-65001508D01*
X107348595Y-65006508D01*
X107181505Y-65173598D01*
X107045965Y-65367170D01*
X106946097Y-65581336D01*
X106884936Y-65809592D01*
X106864340Y-66044999D01*
X106884936Y-66280407D01*
X106929709Y-66447502D01*
X106946097Y-66508663D01*
X107045965Y-66722830D01*
X107181505Y-66916401D01*
X107348599Y-67083495D01*
X107534160Y-67213426D01*
X107573024Y-67257743D01*
X107587035Y-67315000D01*
X107573024Y-67372257D01*
X107534160Y-67416574D01*
X107355736Y-67541508D01*
X107348595Y-67546508D01*
X107181505Y-67713598D01*
X107045965Y-67907170D01*
X106946097Y-68121336D01*
X106884936Y-68349592D01*
X106864340Y-68584999D01*
X70500500Y-68584999D01*
X70500500Y-55124500D01*
X70517113Y-55062500D01*
X70562500Y-55017113D01*
X70624500Y-55000500D01*
X113375500Y-55000500D01*
X113437500Y-55017113D01*
G37*
%TD.AperFunction*%
%TD*%
M02*
